<svg xmlns="http://www.w3.org/2000/svg" xmlns:xlink="http://www.w3.org/1999/xlink" width="781.704" height="1080" viewBox="0 0 781.704 1080">
  <defs>
    <clipPath id="clip-path">
      <rect width="781.704" height="1080" fill="none"/>
    </clipPath>
  </defs>
  <g id="Repeat_Grid_1" data-name="Repeat Grid 1" clip-path="url(#clip-path)">
    <g transform="translate(-1138.296 0)">
      <path id="Path_196" data-name="Path 196" d="M238.239,18.285c-6.193,9.915-11.118,18.169-10.944,18.343s3.275-.645,6.891-1.82l6.575-2.138L245.4,16.693C247.959,7.9,249.925.613,249.774.487S244.433,8.37,238.239,18.285ZM349,12.5,339.54,22h8.866L344.5,26l-3.906,4h3.7c2.037,0,3.7.209,3.7.464a31.37,31.37,0,0,1-4.25,4.475c-2.629,2.481-3.662,4.021-2.708,4.036.848.014,3.529-2,5.958-4.475,3.3-3.366,5.178-4.5,7.437-4.5,2.922,0,2.726.3-5.937,9-4.927,4.95-8.293,9-7.479,9s5.709-4.276,10.878-9.5l9.4-9.5h-8.714L357,24.5l4.416-4.5h-8.822l3.888-3.982c2.138-2.19,3.664-4.2,3.391-4.479s-2.476,1.518-4.894,3.982C351.7,18.867,349.82,20,347.564,20c-2.933,0-2.778-.243,5.436-8.5,4.651-4.675,7.782-8.5,6.958-8.5S354.2,7.275,349,12.5ZM23.5,18.3l-13,13.2,6.25.3,6.25.3v6.453C23,42.1,23.35,45,23.779,45S27.457,42.075,31,38.5L37.442,32H23.528L37,18.5,50.472,5l-6.986.051L36.5,5.1Zm103.086-2.047L112.671,25.5l5.665.3c3.115.165,5.664.529,5.664.809a94.458,94.458,0,0,1-6.045,8.45c-3.325,4.368-5.8,7.941-5.494,7.941s6.335-3.852,13.4-8.561c12.155-8.1,13.106-8.543,17.574-8.25l4.724.311-6.714,8.891c-3.693,4.89-6.092,8.521-5.331,8.068s7.458-4.9,14.883-9.891L164.5,24.5l-6.193-.3-6.193-.3,5.943-7.9A86.1,86.1,0,0,0,164,7.539c0-.309-5.735,3.268-12.744,7.949-11.533,7.7-13.2,8.512-17.5,8.512-2.616,0-4.756-.252-4.756-.559a87.225,87.225,0,0,1,6.045-8.5C138.37,10.573,140.957,7,140.795,7S134.239,11.169,126.586,16.254Zm6.714-1.935c-.44.726-2.15,3.191-3.8,5.479-2.632,3.649-3.48,4.162-6.917,4.181-4.546.024-4.53,0,4.244-6.128C134.48,12.5,134.361,12.569,133.3,14.319Zm120.616,1.435-6.583,2.366L243.16,32.81c-2.295,8.08-4.165,15.14-4.155,15.69s2.618-3.05,5.8-8c9.362-14.584,16.522-26.518,16.1-26.826C260.679,13.517,257.537,14.453,253.916,15.754Zm-97.525-.5c-.4.688-2.039,2.938-3.643,5C150.207,23.518,149.3,24,145.666,24L141.5,24l7.5-5C157.178,13.553,157.461,13.41,156.391,15.25ZM353.132,25.5c-2.131,1.925-4.832,3.5-6,3.5-2.794,0-2.686-.809.558-4.195a7.778,7.778,0,0,1,6-2.805h3.316ZM132.885,27.779c-5.66,4.222-13.992,9.244-13.223,7.971.461-.764,2.188-3.26,3.838-5.548,2.727-3.781,3.4-4.161,7.385-4.181L135.27,26Zm18.6,3.6c-4.394,2.958-8.139,5.246-8.321,5.084s1.375-2.583,3.463-5.38c3.587-4.8,4.045-5.084,8.321-5.084h4.526ZM350,105.5,338.533,117h11.9l-5.937,6-5.937,6h12l5.937-6,5.937-6H350.558l6.221-6.277c6.033-6.087,6.221-6.435,6.221-11.5,0-2.873-.345-5.223-.766-5.223S356.307,99.175,350,105.5Zm-212.535,3.535C125,121.524,123.816,123,126.263,123a7.608,7.608,0,0,1,2.722.25c-.008.137-1.13,3.841-2.494,8.23l-2.478,7.98,14.021-13.98c12.827-12.79,13.8-14.008,11.415-14.3-2-.249-2.442-.714-1.9-2,1.431-3.408,4.48-13.483,4.174-13.789C151.546,95.213,145.131,101.354,137.465,109.035Zm111.785,1.2L240,119.486v-8.743c0-4.809-.27-8.743-.6-8.743s-4.322,3.825-8.873,8.5-7.8,8.5-7.215,8.5,2.1-.978,3.373-2.174L229,114.651V133.46l9.5-9.46,9.5-9.46v18.566l9.084-9.136c5-5.025,8.816-9.4,8.489-9.73s-1.921.678-3.544,2.232l-2.95,2.826-.289-9.16-.29-9.16ZM25.885,108.941,23.624,112l-11.562.053L.5,112.106l15.942,8.049,15.942,8.05,2.558-3.112,2.558-3.111,10.75.009c5.912.005,10.734-.329,10.714-.741-.028-.6-26.345-13.847-29.909-15.059C28.556,106.021,27.129,107.259,25.885,108.941ZM238.5,114.007c-.141,6.768-.322,7.279-3.825,10.782L231,128.467v-7.936c0-7.552.153-8.094,3.158-11.194,1.738-1.793,3.459-3.074,3.826-2.847S238.585,110.1,238.5,114.007Zm15.042,10.914L250,128.467v-7.936c0-7.6.139-8.079,3.25-11.295l3.25-3.359.3,7.75C257.089,121.324,257.067,121.4,253.545,124.921ZM38,114l7.5,3.9-4.5.04c-3.8.035-4.9.527-7.061,3.156l-2.561,3.115-8.439-4.356L14.5,115.5l5.4-.308c4.324-.246,5.785-.794,7.323-2.75,1.057-1.343,2.226-2.42,2.6-2.393A87.655,87.655,0,0,1,38,114Zm313,20.716v5.716L356.5,135c3.025-2.987,5.5-5.56,5.5-5.716a27.051,27.051,0,0,0-5.5-.284H351Z" transform="translate(1208.079 -0.671) rotate(30)" fill="#560617" fill-rule="evenodd"/>
    </g>
    <g transform="translate(-734.296 0)">
      <path id="Path_196-2" data-name="Path 196" d="M238.239,18.285c-6.193,9.915-11.118,18.169-10.944,18.343s3.275-.645,6.891-1.82l6.575-2.138L245.4,16.693C247.959,7.9,249.925.613,249.774.487S244.433,8.37,238.239,18.285ZM349,12.5,339.54,22h8.866L344.5,26l-3.906,4h3.7c2.037,0,3.7.209,3.7.464a31.37,31.37,0,0,1-4.25,4.475c-2.629,2.481-3.662,4.021-2.708,4.036.848.014,3.529-2,5.958-4.475,3.3-3.366,5.178-4.5,7.437-4.5,2.922,0,2.726.3-5.937,9-4.927,4.95-8.293,9-7.479,9s5.709-4.276,10.878-9.5l9.4-9.5h-8.714L357,24.5l4.416-4.5h-8.822l3.888-3.982c2.138-2.19,3.664-4.2,3.391-4.479s-2.476,1.518-4.894,3.982C351.7,18.867,349.82,20,347.564,20c-2.933,0-2.778-.243,5.436-8.5,4.651-4.675,7.782-8.5,6.958-8.5S354.2,7.275,349,12.5ZM23.5,18.3l-13,13.2,6.25.3,6.25.3v6.453C23,42.1,23.35,45,23.779,45S27.457,42.075,31,38.5L37.442,32H23.528L37,18.5,50.472,5l-6.986.051L36.5,5.1Zm103.086-2.047L112.671,25.5l5.665.3c3.115.165,5.664.529,5.664.809a94.458,94.458,0,0,1-6.045,8.45c-3.325,4.368-5.8,7.941-5.494,7.941s6.335-3.852,13.4-8.561c12.155-8.1,13.106-8.543,17.574-8.25l4.724.311-6.714,8.891c-3.693,4.89-6.092,8.521-5.331,8.068s7.458-4.9,14.883-9.891L164.5,24.5l-6.193-.3-6.193-.3,5.943-7.9A86.1,86.1,0,0,0,164,7.539c0-.309-5.735,3.268-12.744,7.949-11.533,7.7-13.2,8.512-17.5,8.512-2.616,0-4.756-.252-4.756-.559a87.225,87.225,0,0,1,6.045-8.5C138.37,10.573,140.957,7,140.795,7S134.239,11.169,126.586,16.254Zm6.714-1.935c-.44.726-2.15,3.191-3.8,5.479-2.632,3.649-3.48,4.162-6.917,4.181-4.546.024-4.53,0,4.244-6.128C134.48,12.5,134.361,12.569,133.3,14.319Zm120.616,1.435-6.583,2.366L243.16,32.81c-2.295,8.08-4.165,15.14-4.155,15.69s2.618-3.05,5.8-8c9.362-14.584,16.522-26.518,16.1-26.826C260.679,13.517,257.537,14.453,253.916,15.754Zm-97.525-.5c-.4.688-2.039,2.938-3.643,5C150.207,23.518,149.3,24,145.666,24L141.5,24l7.5-5C157.178,13.553,157.461,13.41,156.391,15.25ZM353.132,25.5c-2.131,1.925-4.832,3.5-6,3.5-2.794,0-2.686-.809.558-4.195a7.778,7.778,0,0,1,6-2.805h3.316ZM132.885,27.779c-5.66,4.222-13.992,9.244-13.223,7.971.461-.764,2.188-3.26,3.838-5.548,2.727-3.781,3.4-4.161,7.385-4.181L135.27,26Zm18.6,3.6c-4.394,2.958-8.139,5.246-8.321,5.084s1.375-2.583,3.463-5.38c3.587-4.8,4.045-5.084,8.321-5.084h4.526ZM350,105.5,338.533,117h11.9l-5.937,6-5.937,6h12l5.937-6,5.937-6H350.558l6.221-6.277c6.033-6.087,6.221-6.435,6.221-11.5,0-2.873-.345-5.223-.766-5.223S356.307,99.175,350,105.5Zm-212.535,3.535C125,121.524,123.816,123,126.263,123a7.608,7.608,0,0,1,2.722.25c-.008.137-1.13,3.841-2.494,8.23l-2.478,7.98,14.021-13.98c12.827-12.79,13.8-14.008,11.415-14.3-2-.249-2.442-.714-1.9-2,1.431-3.408,4.48-13.483,4.174-13.789C151.546,95.213,145.131,101.354,137.465,109.035Zm111.785,1.2L240,119.486v-8.743c0-4.809-.27-8.743-.6-8.743s-4.322,3.825-8.873,8.5-7.8,8.5-7.215,8.5,2.1-.978,3.373-2.174L229,114.651V133.46l9.5-9.46,9.5-9.46v18.566l9.084-9.136c5-5.025,8.816-9.4,8.489-9.73s-1.921.678-3.544,2.232l-2.95,2.826-.289-9.16-.29-9.16ZM25.885,108.941,23.624,112l-11.562.053L.5,112.106l15.942,8.049,15.942,8.05,2.558-3.112,2.558-3.111,10.75.009c5.912.005,10.734-.329,10.714-.741-.028-.6-26.345-13.847-29.909-15.059C28.556,106.021,27.129,107.259,25.885,108.941ZM238.5,114.007c-.141,6.768-.322,7.279-3.825,10.782L231,128.467v-7.936c0-7.552.153-8.094,3.158-11.194,1.738-1.793,3.459-3.074,3.826-2.847S238.585,110.1,238.5,114.007Zm15.042,10.914L250,128.467v-7.936c0-7.6.139-8.079,3.25-11.295l3.25-3.359.3,7.75C257.089,121.324,257.067,121.4,253.545,124.921ZM38,114l7.5,3.9-4.5.04c-3.8.035-4.9.527-7.061,3.156l-2.561,3.115-8.439-4.356L14.5,115.5l5.4-.308c4.324-.246,5.785-.794,7.323-2.75,1.057-1.343,2.226-2.42,2.6-2.393A87.655,87.655,0,0,1,38,114Zm313,20.716v5.716L356.5,135c3.025-2.987,5.5-5.56,5.5-5.716a27.051,27.051,0,0,0-5.5-.284H351Z" transform="translate(1208.079 -0.671) rotate(30)" fill="#560617" fill-rule="evenodd"/>
    </g>
    <g transform="translate(-1138.296 323)">
      <path id="Path_196-3" data-name="Path 196" d="M238.239,18.285c-6.193,9.915-11.118,18.169-10.944,18.343s3.275-.645,6.891-1.82l6.575-2.138L245.4,16.693C247.959,7.9,249.925.613,249.774.487S244.433,8.37,238.239,18.285ZM349,12.5,339.54,22h8.866L344.5,26l-3.906,4h3.7c2.037,0,3.7.209,3.7.464a31.37,31.37,0,0,1-4.25,4.475c-2.629,2.481-3.662,4.021-2.708,4.036.848.014,3.529-2,5.958-4.475,3.3-3.366,5.178-4.5,7.437-4.5,2.922,0,2.726.3-5.937,9-4.927,4.95-8.293,9-7.479,9s5.709-4.276,10.878-9.5l9.4-9.5h-8.714L357,24.5l4.416-4.5h-8.822l3.888-3.982c2.138-2.19,3.664-4.2,3.391-4.479s-2.476,1.518-4.894,3.982C351.7,18.867,349.82,20,347.564,20c-2.933,0-2.778-.243,5.436-8.5,4.651-4.675,7.782-8.5,6.958-8.5S354.2,7.275,349,12.5ZM23.5,18.3l-13,13.2,6.25.3,6.25.3v6.453C23,42.1,23.35,45,23.779,45S27.457,42.075,31,38.5L37.442,32H23.528L37,18.5,50.472,5l-6.986.051L36.5,5.1Zm103.086-2.047L112.671,25.5l5.665.3c3.115.165,5.664.529,5.664.809a94.458,94.458,0,0,1-6.045,8.45c-3.325,4.368-5.8,7.941-5.494,7.941s6.335-3.852,13.4-8.561c12.155-8.1,13.106-8.543,17.574-8.25l4.724.311-6.714,8.891c-3.693,4.89-6.092,8.521-5.331,8.068s7.458-4.9,14.883-9.891L164.5,24.5l-6.193-.3-6.193-.3,5.943-7.9A86.1,86.1,0,0,0,164,7.539c0-.309-5.735,3.268-12.744,7.949-11.533,7.7-13.2,8.512-17.5,8.512-2.616,0-4.756-.252-4.756-.559a87.225,87.225,0,0,1,6.045-8.5C138.37,10.573,140.957,7,140.795,7S134.239,11.169,126.586,16.254Zm6.714-1.935c-.44.726-2.15,3.191-3.8,5.479-2.632,3.649-3.48,4.162-6.917,4.181-4.546.024-4.53,0,4.244-6.128C134.48,12.5,134.361,12.569,133.3,14.319Zm120.616,1.435-6.583,2.366L243.16,32.81c-2.295,8.08-4.165,15.14-4.155,15.69s2.618-3.05,5.8-8c9.362-14.584,16.522-26.518,16.1-26.826C260.679,13.517,257.537,14.453,253.916,15.754Zm-97.525-.5c-.4.688-2.039,2.938-3.643,5C150.207,23.518,149.3,24,145.666,24L141.5,24l7.5-5C157.178,13.553,157.461,13.41,156.391,15.25ZM353.132,25.5c-2.131,1.925-4.832,3.5-6,3.5-2.794,0-2.686-.809.558-4.195a7.778,7.778,0,0,1,6-2.805h3.316ZM132.885,27.779c-5.66,4.222-13.992,9.244-13.223,7.971.461-.764,2.188-3.26,3.838-5.548,2.727-3.781,3.4-4.161,7.385-4.181L135.27,26Zm18.6,3.6c-4.394,2.958-8.139,5.246-8.321,5.084s1.375-2.583,3.463-5.38c3.587-4.8,4.045-5.084,8.321-5.084h4.526ZM350,105.5,338.533,117h11.9l-5.937,6-5.937,6h12l5.937-6,5.937-6H350.558l6.221-6.277c6.033-6.087,6.221-6.435,6.221-11.5,0-2.873-.345-5.223-.766-5.223S356.307,99.175,350,105.5Zm-212.535,3.535C125,121.524,123.816,123,126.263,123a7.608,7.608,0,0,1,2.722.25c-.008.137-1.13,3.841-2.494,8.23l-2.478,7.98,14.021-13.98c12.827-12.79,13.8-14.008,11.415-14.3-2-.249-2.442-.714-1.9-2,1.431-3.408,4.48-13.483,4.174-13.789C151.546,95.213,145.131,101.354,137.465,109.035Zm111.785,1.2L240,119.486v-8.743c0-4.809-.27-8.743-.6-8.743s-4.322,3.825-8.873,8.5-7.8,8.5-7.215,8.5,2.1-.978,3.373-2.174L229,114.651V133.46l9.5-9.46,9.5-9.46v18.566l9.084-9.136c5-5.025,8.816-9.4,8.489-9.73s-1.921.678-3.544,2.232l-2.95,2.826-.289-9.16-.29-9.16ZM25.885,108.941,23.624,112l-11.562.053L.5,112.106l15.942,8.049,15.942,8.05,2.558-3.112,2.558-3.111,10.75.009c5.912.005,10.734-.329,10.714-.741-.028-.6-26.345-13.847-29.909-15.059C28.556,106.021,27.129,107.259,25.885,108.941ZM238.5,114.007c-.141,6.768-.322,7.279-3.825,10.782L231,128.467v-7.936c0-7.552.153-8.094,3.158-11.194,1.738-1.793,3.459-3.074,3.826-2.847S238.585,110.1,238.5,114.007Zm15.042,10.914L250,128.467v-7.936c0-7.6.139-8.079,3.25-11.295l3.25-3.359.3,7.75C257.089,121.324,257.067,121.4,253.545,124.921ZM38,114l7.5,3.9-4.5.04c-3.8.035-4.9.527-7.061,3.156l-2.561,3.115-8.439-4.356L14.5,115.5l5.4-.308c4.324-.246,5.785-.794,7.323-2.75,1.057-1.343,2.226-2.42,2.6-2.393A87.655,87.655,0,0,1,38,114Zm313,20.716v5.716L356.5,135c3.025-2.987,5.5-5.56,5.5-5.716a27.051,27.051,0,0,0-5.5-.284H351Z" transform="translate(1208.079 -0.671) rotate(30)" fill="#560617" fill-rule="evenodd"/>
    </g>
    <g transform="translate(-734.296 323)">
      <path id="Path_196-4" data-name="Path 196" d="M238.239,18.285c-6.193,9.915-11.118,18.169-10.944,18.343s3.275-.645,6.891-1.82l6.575-2.138L245.4,16.693C247.959,7.9,249.925.613,249.774.487S244.433,8.37,238.239,18.285ZM349,12.5,339.54,22h8.866L344.5,26l-3.906,4h3.7c2.037,0,3.7.209,3.7.464a31.37,31.37,0,0,1-4.25,4.475c-2.629,2.481-3.662,4.021-2.708,4.036.848.014,3.529-2,5.958-4.475,3.3-3.366,5.178-4.5,7.437-4.5,2.922,0,2.726.3-5.937,9-4.927,4.95-8.293,9-7.479,9s5.709-4.276,10.878-9.5l9.4-9.5h-8.714L357,24.5l4.416-4.5h-8.822l3.888-3.982c2.138-2.19,3.664-4.2,3.391-4.479s-2.476,1.518-4.894,3.982C351.7,18.867,349.82,20,347.564,20c-2.933,0-2.778-.243,5.436-8.5,4.651-4.675,7.782-8.5,6.958-8.5S354.2,7.275,349,12.5ZM23.5,18.3l-13,13.2,6.25.3,6.25.3v6.453C23,42.1,23.35,45,23.779,45S27.457,42.075,31,38.5L37.442,32H23.528L37,18.5,50.472,5l-6.986.051L36.5,5.1Zm103.086-2.047L112.671,25.5l5.665.3c3.115.165,5.664.529,5.664.809a94.458,94.458,0,0,1-6.045,8.45c-3.325,4.368-5.8,7.941-5.494,7.941s6.335-3.852,13.4-8.561c12.155-8.1,13.106-8.543,17.574-8.25l4.724.311-6.714,8.891c-3.693,4.89-6.092,8.521-5.331,8.068s7.458-4.9,14.883-9.891L164.5,24.5l-6.193-.3-6.193-.3,5.943-7.9A86.1,86.1,0,0,0,164,7.539c0-.309-5.735,3.268-12.744,7.949-11.533,7.7-13.2,8.512-17.5,8.512-2.616,0-4.756-.252-4.756-.559a87.225,87.225,0,0,1,6.045-8.5C138.37,10.573,140.957,7,140.795,7S134.239,11.169,126.586,16.254Zm6.714-1.935c-.44.726-2.15,3.191-3.8,5.479-2.632,3.649-3.48,4.162-6.917,4.181-4.546.024-4.53,0,4.244-6.128C134.48,12.5,134.361,12.569,133.3,14.319Zm120.616,1.435-6.583,2.366L243.16,32.81c-2.295,8.08-4.165,15.14-4.155,15.69s2.618-3.05,5.8-8c9.362-14.584,16.522-26.518,16.1-26.826C260.679,13.517,257.537,14.453,253.916,15.754Zm-97.525-.5c-.4.688-2.039,2.938-3.643,5C150.207,23.518,149.3,24,145.666,24L141.5,24l7.5-5C157.178,13.553,157.461,13.41,156.391,15.25ZM353.132,25.5c-2.131,1.925-4.832,3.5-6,3.5-2.794,0-2.686-.809.558-4.195a7.778,7.778,0,0,1,6-2.805h3.316ZM132.885,27.779c-5.66,4.222-13.992,9.244-13.223,7.971.461-.764,2.188-3.26,3.838-5.548,2.727-3.781,3.4-4.161,7.385-4.181L135.27,26Zm18.6,3.6c-4.394,2.958-8.139,5.246-8.321,5.084s1.375-2.583,3.463-5.38c3.587-4.8,4.045-5.084,8.321-5.084h4.526ZM350,105.5,338.533,117h11.9l-5.937,6-5.937,6h12l5.937-6,5.937-6H350.558l6.221-6.277c6.033-6.087,6.221-6.435,6.221-11.5,0-2.873-.345-5.223-.766-5.223S356.307,99.175,350,105.5Zm-212.535,3.535C125,121.524,123.816,123,126.263,123a7.608,7.608,0,0,1,2.722.25c-.008.137-1.13,3.841-2.494,8.23l-2.478,7.98,14.021-13.98c12.827-12.79,13.8-14.008,11.415-14.3-2-.249-2.442-.714-1.9-2,1.431-3.408,4.48-13.483,4.174-13.789C151.546,95.213,145.131,101.354,137.465,109.035Zm111.785,1.2L240,119.486v-8.743c0-4.809-.27-8.743-.6-8.743s-4.322,3.825-8.873,8.5-7.8,8.5-7.215,8.5,2.1-.978,3.373-2.174L229,114.651V133.46l9.5-9.46,9.5-9.46v18.566l9.084-9.136c5-5.025,8.816-9.4,8.489-9.73s-1.921.678-3.544,2.232l-2.95,2.826-.289-9.16-.29-9.16ZM25.885,108.941,23.624,112l-11.562.053L.5,112.106l15.942,8.049,15.942,8.05,2.558-3.112,2.558-3.111,10.75.009c5.912.005,10.734-.329,10.714-.741-.028-.6-26.345-13.847-29.909-15.059C28.556,106.021,27.129,107.259,25.885,108.941ZM238.5,114.007c-.141,6.768-.322,7.279-3.825,10.782L231,128.467v-7.936c0-7.552.153-8.094,3.158-11.194,1.738-1.793,3.459-3.074,3.826-2.847S238.585,110.1,238.5,114.007Zm15.042,10.914L250,128.467v-7.936c0-7.6.139-8.079,3.25-11.295l3.25-3.359.3,7.75C257.089,121.324,257.067,121.4,253.545,124.921ZM38,114l7.5,3.9-4.5.04c-3.8.035-4.9.527-7.061,3.156l-2.561,3.115-8.439-4.356L14.5,115.5l5.4-.308c4.324-.246,5.785-.794,7.323-2.75,1.057-1.343,2.226-2.42,2.6-2.393A87.655,87.655,0,0,1,38,114Zm313,20.716v5.716L356.5,135c3.025-2.987,5.5-5.56,5.5-5.716a27.051,27.051,0,0,0-5.5-.284H351Z" transform="translate(1208.079 -0.671) rotate(30)" fill="#560617" fill-rule="evenodd"/>
    </g>
    <g transform="translate(-1138.296 646)">
      <path id="Path_196-5" data-name="Path 196" d="M238.239,18.285c-6.193,9.915-11.118,18.169-10.944,18.343s3.275-.645,6.891-1.82l6.575-2.138L245.4,16.693C247.959,7.9,249.925.613,249.774.487S244.433,8.37,238.239,18.285ZM349,12.5,339.54,22h8.866L344.5,26l-3.906,4h3.7c2.037,0,3.7.209,3.7.464a31.37,31.37,0,0,1-4.25,4.475c-2.629,2.481-3.662,4.021-2.708,4.036.848.014,3.529-2,5.958-4.475,3.3-3.366,5.178-4.5,7.437-4.5,2.922,0,2.726.3-5.937,9-4.927,4.95-8.293,9-7.479,9s5.709-4.276,10.878-9.5l9.4-9.5h-8.714L357,24.5l4.416-4.5h-8.822l3.888-3.982c2.138-2.19,3.664-4.2,3.391-4.479s-2.476,1.518-4.894,3.982C351.7,18.867,349.82,20,347.564,20c-2.933,0-2.778-.243,5.436-8.5,4.651-4.675,7.782-8.5,6.958-8.5S354.2,7.275,349,12.5ZM23.5,18.3l-13,13.2,6.25.3,6.25.3v6.453C23,42.1,23.35,45,23.779,45S27.457,42.075,31,38.5L37.442,32H23.528L37,18.5,50.472,5l-6.986.051L36.5,5.1Zm103.086-2.047L112.671,25.5l5.665.3c3.115.165,5.664.529,5.664.809a94.458,94.458,0,0,1-6.045,8.45c-3.325,4.368-5.8,7.941-5.494,7.941s6.335-3.852,13.4-8.561c12.155-8.1,13.106-8.543,17.574-8.25l4.724.311-6.714,8.891c-3.693,4.89-6.092,8.521-5.331,8.068s7.458-4.9,14.883-9.891L164.5,24.5l-6.193-.3-6.193-.3,5.943-7.9A86.1,86.1,0,0,0,164,7.539c0-.309-5.735,3.268-12.744,7.949-11.533,7.7-13.2,8.512-17.5,8.512-2.616,0-4.756-.252-4.756-.559a87.225,87.225,0,0,1,6.045-8.5C138.37,10.573,140.957,7,140.795,7S134.239,11.169,126.586,16.254Zm6.714-1.935c-.44.726-2.15,3.191-3.8,5.479-2.632,3.649-3.48,4.162-6.917,4.181-4.546.024-4.53,0,4.244-6.128C134.48,12.5,134.361,12.569,133.3,14.319Zm120.616,1.435-6.583,2.366L243.16,32.81c-2.295,8.08-4.165,15.14-4.155,15.69s2.618-3.05,5.8-8c9.362-14.584,16.522-26.518,16.1-26.826C260.679,13.517,257.537,14.453,253.916,15.754Zm-97.525-.5c-.4.688-2.039,2.938-3.643,5C150.207,23.518,149.3,24,145.666,24L141.5,24l7.5-5C157.178,13.553,157.461,13.41,156.391,15.25ZM353.132,25.5c-2.131,1.925-4.832,3.5-6,3.5-2.794,0-2.686-.809.558-4.195a7.778,7.778,0,0,1,6-2.805h3.316ZM132.885,27.779c-5.66,4.222-13.992,9.244-13.223,7.971.461-.764,2.188-3.26,3.838-5.548,2.727-3.781,3.4-4.161,7.385-4.181L135.27,26Zm18.6,3.6c-4.394,2.958-8.139,5.246-8.321,5.084s1.375-2.583,3.463-5.38c3.587-4.8,4.045-5.084,8.321-5.084h4.526ZM350,105.5,338.533,117h11.9l-5.937,6-5.937,6h12l5.937-6,5.937-6H350.558l6.221-6.277c6.033-6.087,6.221-6.435,6.221-11.5,0-2.873-.345-5.223-.766-5.223S356.307,99.175,350,105.5Zm-212.535,3.535C125,121.524,123.816,123,126.263,123a7.608,7.608,0,0,1,2.722.25c-.008.137-1.13,3.841-2.494,8.23l-2.478,7.98,14.021-13.98c12.827-12.79,13.8-14.008,11.415-14.3-2-.249-2.442-.714-1.9-2,1.431-3.408,4.48-13.483,4.174-13.789C151.546,95.213,145.131,101.354,137.465,109.035Zm111.785,1.2L240,119.486v-8.743c0-4.809-.27-8.743-.6-8.743s-4.322,3.825-8.873,8.5-7.8,8.5-7.215,8.5,2.1-.978,3.373-2.174L229,114.651V133.46l9.5-9.46,9.5-9.46v18.566l9.084-9.136c5-5.025,8.816-9.4,8.489-9.73s-1.921.678-3.544,2.232l-2.95,2.826-.289-9.16-.29-9.16ZM25.885,108.941,23.624,112l-11.562.053L.5,112.106l15.942,8.049,15.942,8.05,2.558-3.112,2.558-3.111,10.75.009c5.912.005,10.734-.329,10.714-.741-.028-.6-26.345-13.847-29.909-15.059C28.556,106.021,27.129,107.259,25.885,108.941ZM238.5,114.007c-.141,6.768-.322,7.279-3.825,10.782L231,128.467v-7.936c0-7.552.153-8.094,3.158-11.194,1.738-1.793,3.459-3.074,3.826-2.847S238.585,110.1,238.5,114.007Zm15.042,10.914L250,128.467v-7.936c0-7.6.139-8.079,3.25-11.295l3.25-3.359.3,7.75C257.089,121.324,257.067,121.4,253.545,124.921ZM38,114l7.5,3.9-4.5.04c-3.8.035-4.9.527-7.061,3.156l-2.561,3.115-8.439-4.356L14.5,115.5l5.4-.308c4.324-.246,5.785-.794,7.323-2.75,1.057-1.343,2.226-2.42,2.6-2.393A87.655,87.655,0,0,1,38,114Zm313,20.716v5.716L356.5,135c3.025-2.987,5.5-5.56,5.5-5.716a27.051,27.051,0,0,0-5.5-.284H351Z" transform="translate(1208.079 -0.671) rotate(30)" fill="#560617" fill-rule="evenodd"/>
    </g>
    <g transform="translate(-734.296 646)">
      <path id="Path_196-6" data-name="Path 196" d="M238.239,18.285c-6.193,9.915-11.118,18.169-10.944,18.343s3.275-.645,6.891-1.82l6.575-2.138L245.4,16.693C247.959,7.9,249.925.613,249.774.487S244.433,8.37,238.239,18.285ZM349,12.5,339.54,22h8.866L344.5,26l-3.906,4h3.7c2.037,0,3.7.209,3.7.464a31.37,31.37,0,0,1-4.25,4.475c-2.629,2.481-3.662,4.021-2.708,4.036.848.014,3.529-2,5.958-4.475,3.3-3.366,5.178-4.5,7.437-4.5,2.922,0,2.726.3-5.937,9-4.927,4.95-8.293,9-7.479,9s5.709-4.276,10.878-9.5l9.4-9.5h-8.714L357,24.5l4.416-4.5h-8.822l3.888-3.982c2.138-2.19,3.664-4.2,3.391-4.479s-2.476,1.518-4.894,3.982C351.7,18.867,349.82,20,347.564,20c-2.933,0-2.778-.243,5.436-8.5,4.651-4.675,7.782-8.5,6.958-8.5S354.2,7.275,349,12.5ZM23.5,18.3l-13,13.2,6.25.3,6.25.3v6.453C23,42.1,23.35,45,23.779,45S27.457,42.075,31,38.5L37.442,32H23.528L37,18.5,50.472,5l-6.986.051L36.5,5.1Zm103.086-2.047L112.671,25.5l5.665.3c3.115.165,5.664.529,5.664.809a94.458,94.458,0,0,1-6.045,8.45c-3.325,4.368-5.8,7.941-5.494,7.941s6.335-3.852,13.4-8.561c12.155-8.1,13.106-8.543,17.574-8.25l4.724.311-6.714,8.891c-3.693,4.89-6.092,8.521-5.331,8.068s7.458-4.9,14.883-9.891L164.5,24.5l-6.193-.3-6.193-.3,5.943-7.9A86.1,86.1,0,0,0,164,7.539c0-.309-5.735,3.268-12.744,7.949-11.533,7.7-13.2,8.512-17.5,8.512-2.616,0-4.756-.252-4.756-.559a87.225,87.225,0,0,1,6.045-8.5C138.37,10.573,140.957,7,140.795,7S134.239,11.169,126.586,16.254Zm6.714-1.935c-.44.726-2.15,3.191-3.8,5.479-2.632,3.649-3.48,4.162-6.917,4.181-4.546.024-4.53,0,4.244-6.128C134.48,12.5,134.361,12.569,133.3,14.319Zm120.616,1.435-6.583,2.366L243.16,32.81c-2.295,8.08-4.165,15.14-4.155,15.69s2.618-3.05,5.8-8c9.362-14.584,16.522-26.518,16.1-26.826C260.679,13.517,257.537,14.453,253.916,15.754Zm-97.525-.5c-.4.688-2.039,2.938-3.643,5C150.207,23.518,149.3,24,145.666,24L141.5,24l7.5-5C157.178,13.553,157.461,13.41,156.391,15.25ZM353.132,25.5c-2.131,1.925-4.832,3.5-6,3.5-2.794,0-2.686-.809.558-4.195a7.778,7.778,0,0,1,6-2.805h3.316ZM132.885,27.779c-5.66,4.222-13.992,9.244-13.223,7.971.461-.764,2.188-3.26,3.838-5.548,2.727-3.781,3.4-4.161,7.385-4.181L135.27,26Zm18.6,3.6c-4.394,2.958-8.139,5.246-8.321,5.084s1.375-2.583,3.463-5.38c3.587-4.8,4.045-5.084,8.321-5.084h4.526ZM350,105.5,338.533,117h11.9l-5.937,6-5.937,6h12l5.937-6,5.937-6H350.558l6.221-6.277c6.033-6.087,6.221-6.435,6.221-11.5,0-2.873-.345-5.223-.766-5.223S356.307,99.175,350,105.5Zm-212.535,3.535C125,121.524,123.816,123,126.263,123a7.608,7.608,0,0,1,2.722.25c-.008.137-1.13,3.841-2.494,8.23l-2.478,7.98,14.021-13.98c12.827-12.79,13.8-14.008,11.415-14.3-2-.249-2.442-.714-1.9-2,1.431-3.408,4.48-13.483,4.174-13.789C151.546,95.213,145.131,101.354,137.465,109.035Zm111.785,1.2L240,119.486v-8.743c0-4.809-.27-8.743-.6-8.743s-4.322,3.825-8.873,8.5-7.8,8.5-7.215,8.5,2.1-.978,3.373-2.174L229,114.651V133.46l9.5-9.46,9.5-9.46v18.566l9.084-9.136c5-5.025,8.816-9.4,8.489-9.73s-1.921.678-3.544,2.232l-2.95,2.826-.289-9.16-.29-9.16ZM25.885,108.941,23.624,112l-11.562.053L.5,112.106l15.942,8.049,15.942,8.05,2.558-3.112,2.558-3.111,10.75.009c5.912.005,10.734-.329,10.714-.741-.028-.6-26.345-13.847-29.909-15.059C28.556,106.021,27.129,107.259,25.885,108.941ZM238.5,114.007c-.141,6.768-.322,7.279-3.825,10.782L231,128.467v-7.936c0-7.552.153-8.094,3.158-11.194,1.738-1.793,3.459-3.074,3.826-2.847S238.585,110.1,238.5,114.007Zm15.042,10.914L250,128.467v-7.936c0-7.6.139-8.079,3.25-11.295l3.25-3.359.3,7.75C257.089,121.324,257.067,121.4,253.545,124.921ZM38,114l7.5,3.9-4.5.04c-3.8.035-4.9.527-7.061,3.156l-2.561,3.115-8.439-4.356L14.5,115.5l5.4-.308c4.324-.246,5.785-.794,7.323-2.75,1.057-1.343,2.226-2.42,2.6-2.393A87.655,87.655,0,0,1,38,114Zm313,20.716v5.716L356.5,135c3.025-2.987,5.5-5.56,5.5-5.716a27.051,27.051,0,0,0-5.5-.284H351Z" transform="translate(1208.079 -0.671) rotate(30)" fill="#560617" fill-rule="evenodd"/>
    </g>
    <g transform="translate(-1138.296 969)">
      <path id="Path_196-7" data-name="Path 196" d="M238.239,18.285c-6.193,9.915-11.118,18.169-10.944,18.343s3.275-.645,6.891-1.82l6.575-2.138L245.4,16.693C247.959,7.9,249.925.613,249.774.487S244.433,8.37,238.239,18.285ZM349,12.5,339.54,22h8.866L344.5,26l-3.906,4h3.7c2.037,0,3.7.209,3.7.464a31.37,31.37,0,0,1-4.25,4.475c-2.629,2.481-3.662,4.021-2.708,4.036.848.014,3.529-2,5.958-4.475,3.3-3.366,5.178-4.5,7.437-4.5,2.922,0,2.726.3-5.937,9-4.927,4.95-8.293,9-7.479,9s5.709-4.276,10.878-9.5l9.4-9.5h-8.714L357,24.5l4.416-4.5h-8.822l3.888-3.982c2.138-2.19,3.664-4.2,3.391-4.479s-2.476,1.518-4.894,3.982C351.7,18.867,349.82,20,347.564,20c-2.933,0-2.778-.243,5.436-8.5,4.651-4.675,7.782-8.5,6.958-8.5S354.2,7.275,349,12.5ZM23.5,18.3l-13,13.2,6.25.3,6.25.3v6.453C23,42.1,23.35,45,23.779,45S27.457,42.075,31,38.5L37.442,32H23.528L37,18.5,50.472,5l-6.986.051L36.5,5.1Zm103.086-2.047L112.671,25.5l5.665.3c3.115.165,5.664.529,5.664.809a94.458,94.458,0,0,1-6.045,8.45c-3.325,4.368-5.8,7.941-5.494,7.941s6.335-3.852,13.4-8.561c12.155-8.1,13.106-8.543,17.574-8.25l4.724.311-6.714,8.891c-3.693,4.89-6.092,8.521-5.331,8.068s7.458-4.9,14.883-9.891L164.5,24.5l-6.193-.3-6.193-.3,5.943-7.9A86.1,86.1,0,0,0,164,7.539c0-.309-5.735,3.268-12.744,7.949-11.533,7.7-13.2,8.512-17.5,8.512-2.616,0-4.756-.252-4.756-.559a87.225,87.225,0,0,1,6.045-8.5C138.37,10.573,140.957,7,140.795,7S134.239,11.169,126.586,16.254Zm6.714-1.935c-.44.726-2.15,3.191-3.8,5.479-2.632,3.649-3.48,4.162-6.917,4.181-4.546.024-4.53,0,4.244-6.128C134.48,12.5,134.361,12.569,133.3,14.319Zm120.616,1.435-6.583,2.366L243.16,32.81c-2.295,8.08-4.165,15.14-4.155,15.69s2.618-3.05,5.8-8c9.362-14.584,16.522-26.518,16.1-26.826C260.679,13.517,257.537,14.453,253.916,15.754Zm-97.525-.5c-.4.688-2.039,2.938-3.643,5C150.207,23.518,149.3,24,145.666,24L141.5,24l7.5-5C157.178,13.553,157.461,13.41,156.391,15.25ZM353.132,25.5c-2.131,1.925-4.832,3.5-6,3.5-2.794,0-2.686-.809.558-4.195a7.778,7.778,0,0,1,6-2.805h3.316ZM132.885,27.779c-5.66,4.222-13.992,9.244-13.223,7.971.461-.764,2.188-3.26,3.838-5.548,2.727-3.781,3.4-4.161,7.385-4.181L135.27,26Zm18.6,3.6c-4.394,2.958-8.139,5.246-8.321,5.084s1.375-2.583,3.463-5.38c3.587-4.8,4.045-5.084,8.321-5.084h4.526ZM350,105.5,338.533,117h11.9l-5.937,6-5.937,6h12l5.937-6,5.937-6H350.558l6.221-6.277c6.033-6.087,6.221-6.435,6.221-11.5,0-2.873-.345-5.223-.766-5.223S356.307,99.175,350,105.5Zm-212.535,3.535C125,121.524,123.816,123,126.263,123a7.608,7.608,0,0,1,2.722.25c-.008.137-1.13,3.841-2.494,8.23l-2.478,7.98,14.021-13.98c12.827-12.79,13.8-14.008,11.415-14.3-2-.249-2.442-.714-1.9-2,1.431-3.408,4.48-13.483,4.174-13.789C151.546,95.213,145.131,101.354,137.465,109.035Zm111.785,1.2L240,119.486v-8.743c0-4.809-.27-8.743-.6-8.743s-4.322,3.825-8.873,8.5-7.8,8.5-7.215,8.5,2.1-.978,3.373-2.174L229,114.651V133.46l9.5-9.46,9.5-9.46v18.566l9.084-9.136c5-5.025,8.816-9.4,8.489-9.73s-1.921.678-3.544,2.232l-2.95,2.826-.289-9.16-.29-9.16ZM25.885,108.941,23.624,112l-11.562.053L.5,112.106l15.942,8.049,15.942,8.05,2.558-3.112,2.558-3.111,10.75.009c5.912.005,10.734-.329,10.714-.741-.028-.6-26.345-13.847-29.909-15.059C28.556,106.021,27.129,107.259,25.885,108.941ZM238.5,114.007c-.141,6.768-.322,7.279-3.825,10.782L231,128.467v-7.936c0-7.552.153-8.094,3.158-11.194,1.738-1.793,3.459-3.074,3.826-2.847S238.585,110.1,238.5,114.007Zm15.042,10.914L250,128.467v-7.936c0-7.6.139-8.079,3.25-11.295l3.25-3.359.3,7.75C257.089,121.324,257.067,121.4,253.545,124.921ZM38,114l7.5,3.9-4.5.04c-3.8.035-4.9.527-7.061,3.156l-2.561,3.115-8.439-4.356L14.5,115.5l5.4-.308c4.324-.246,5.785-.794,7.323-2.75,1.057-1.343,2.226-2.42,2.6-2.393A87.655,87.655,0,0,1,38,114Zm313,20.716v5.716L356.5,135c3.025-2.987,5.5-5.56,5.5-5.716a27.051,27.051,0,0,0-5.5-.284H351Z" transform="translate(1208.079 -0.671) rotate(30)" fill="#560617" fill-rule="evenodd"/>
    </g>
    <g transform="translate(-734.296 969)">
      <path id="Path_196-8" data-name="Path 196" d="M238.239,18.285c-6.193,9.915-11.118,18.169-10.944,18.343s3.275-.645,6.891-1.82l6.575-2.138L245.4,16.693C247.959,7.9,249.925.613,249.774.487S244.433,8.37,238.239,18.285ZM349,12.5,339.54,22h8.866L344.5,26l-3.906,4h3.7c2.037,0,3.7.209,3.7.464a31.37,31.37,0,0,1-4.25,4.475c-2.629,2.481-3.662,4.021-2.708,4.036.848.014,3.529-2,5.958-4.475,3.3-3.366,5.178-4.5,7.437-4.5,2.922,0,2.726.3-5.937,9-4.927,4.95-8.293,9-7.479,9s5.709-4.276,10.878-9.5l9.4-9.5h-8.714L357,24.5l4.416-4.5h-8.822l3.888-3.982c2.138-2.19,3.664-4.2,3.391-4.479s-2.476,1.518-4.894,3.982C351.7,18.867,349.82,20,347.564,20c-2.933,0-2.778-.243,5.436-8.5,4.651-4.675,7.782-8.5,6.958-8.5S354.2,7.275,349,12.5ZM23.5,18.3l-13,13.2,6.25.3,6.25.3v6.453C23,42.1,23.35,45,23.779,45S27.457,42.075,31,38.5L37.442,32H23.528L37,18.5,50.472,5l-6.986.051L36.5,5.1Zm103.086-2.047L112.671,25.5l5.665.3c3.115.165,5.664.529,5.664.809a94.458,94.458,0,0,1-6.045,8.45c-3.325,4.368-5.8,7.941-5.494,7.941s6.335-3.852,13.4-8.561c12.155-8.1,13.106-8.543,17.574-8.25l4.724.311-6.714,8.891c-3.693,4.89-6.092,8.521-5.331,8.068s7.458-4.9,14.883-9.891L164.5,24.5l-6.193-.3-6.193-.3,5.943-7.9A86.1,86.1,0,0,0,164,7.539c0-.309-5.735,3.268-12.744,7.949-11.533,7.7-13.2,8.512-17.5,8.512-2.616,0-4.756-.252-4.756-.559a87.225,87.225,0,0,1,6.045-8.5C138.37,10.573,140.957,7,140.795,7S134.239,11.169,126.586,16.254Zm6.714-1.935c-.44.726-2.15,3.191-3.8,5.479-2.632,3.649-3.48,4.162-6.917,4.181-4.546.024-4.53,0,4.244-6.128C134.48,12.5,134.361,12.569,133.3,14.319Zm120.616,1.435-6.583,2.366L243.16,32.81c-2.295,8.08-4.165,15.14-4.155,15.69s2.618-3.05,5.8-8c9.362-14.584,16.522-26.518,16.1-26.826C260.679,13.517,257.537,14.453,253.916,15.754Zm-97.525-.5c-.4.688-2.039,2.938-3.643,5C150.207,23.518,149.3,24,145.666,24L141.5,24l7.5-5C157.178,13.553,157.461,13.41,156.391,15.25ZM353.132,25.5c-2.131,1.925-4.832,3.5-6,3.5-2.794,0-2.686-.809.558-4.195a7.778,7.778,0,0,1,6-2.805h3.316ZM132.885,27.779c-5.66,4.222-13.992,9.244-13.223,7.971.461-.764,2.188-3.26,3.838-5.548,2.727-3.781,3.4-4.161,7.385-4.181L135.27,26Zm18.6,3.6c-4.394,2.958-8.139,5.246-8.321,5.084s1.375-2.583,3.463-5.38c3.587-4.8,4.045-5.084,8.321-5.084h4.526ZM350,105.5,338.533,117h11.9l-5.937,6-5.937,6h12l5.937-6,5.937-6H350.558l6.221-6.277c6.033-6.087,6.221-6.435,6.221-11.5,0-2.873-.345-5.223-.766-5.223S356.307,99.175,350,105.5Zm-212.535,3.535C125,121.524,123.816,123,126.263,123a7.608,7.608,0,0,1,2.722.25c-.008.137-1.13,3.841-2.494,8.23l-2.478,7.98,14.021-13.98c12.827-12.79,13.8-14.008,11.415-14.3-2-.249-2.442-.714-1.9-2,1.431-3.408,4.48-13.483,4.174-13.789C151.546,95.213,145.131,101.354,137.465,109.035Zm111.785,1.2L240,119.486v-8.743c0-4.809-.27-8.743-.6-8.743s-4.322,3.825-8.873,8.5-7.8,8.5-7.215,8.5,2.1-.978,3.373-2.174L229,114.651V133.46l9.5-9.46,9.5-9.46v18.566l9.084-9.136c5-5.025,8.816-9.4,8.489-9.73s-1.921.678-3.544,2.232l-2.95,2.826-.289-9.16-.29-9.16ZM25.885,108.941,23.624,112l-11.562.053L.5,112.106l15.942,8.049,15.942,8.05,2.558-3.112,2.558-3.111,10.75.009c5.912.005,10.734-.329,10.714-.741-.028-.6-26.345-13.847-29.909-15.059C28.556,106.021,27.129,107.259,25.885,108.941ZM238.5,114.007c-.141,6.768-.322,7.279-3.825,10.782L231,128.467v-7.936c0-7.552.153-8.094,3.158-11.194,1.738-1.793,3.459-3.074,3.826-2.847S238.585,110.1,238.5,114.007Zm15.042,10.914L250,128.467v-7.936c0-7.6.139-8.079,3.25-11.295l3.25-3.359.3,7.75C257.089,121.324,257.067,121.4,253.545,124.921ZM38,114l7.5,3.9-4.5.04c-3.8.035-4.9.527-7.061,3.156l-2.561,3.115-8.439-4.356L14.5,115.5l5.4-.308c4.324-.246,5.785-.794,7.323-2.75,1.057-1.343,2.226-2.42,2.6-2.393A87.655,87.655,0,0,1,38,114Zm313,20.716v5.716L356.5,135c3.025-2.987,5.5-5.56,5.5-5.716a27.051,27.051,0,0,0-5.5-.284H351Z" transform="translate(1208.079 -0.671) rotate(30)" fill="#560617" fill-rule="evenodd"/>
    </g>
  </g>
</svg>
